<mxfile host="Electron" modified="2024-05-23T17:28:12.125Z" agent="Mozilla/5.0 (Windows NT 10.0; Win64; x64) AppleWebKit/537.36 (KHTML, like Gecko) draw.io/21.2.8 Chrome/112.0.5615.165 Electron/24.2.0 Safari/537.36" etag="YJJBHq7hB3VPJmkQiY1M" version="21.2.8" type="device" pages="2">
  <diagram name="抽奖策略领域" id="8Z6mKUziP82hZVWPxM3a">
    <mxGraphModel dx="1036" dy="606" grid="1" gridSize="10" guides="1" tooltips="1" connect="1" arrows="0" fold="1" page="1" pageScale="1" pageWidth="1600" pageHeight="900" math="0" shadow="0">
      <root>
        <mxCell id="0" />
        <mxCell id="1" parent="0" />
        <mxCell id="ebw9fwN_u0WCHgpvLZJU-14" style="edgeStyle=orthogonalEdgeStyle;rounded=0;orthogonalLoop=1;jettySize=auto;html=1;entryX=0;entryY=0.5;entryDx=0;entryDy=0;" parent="1" source="ebw9fwN_u0WCHgpvLZJU-1" target="ebw9fwN_u0WCHgpvLZJU-8" edge="1">
          <mxGeometry relative="1" as="geometry" />
        </mxCell>
        <mxCell id="ebw9fwN_u0WCHgpvLZJU-16" style="edgeStyle=orthogonalEdgeStyle;rounded=0;orthogonalLoop=1;jettySize=auto;html=1;entryX=0;entryY=0.5;entryDx=0;entryDy=0;" parent="1" source="ebw9fwN_u0WCHgpvLZJU-1" target="ebw9fwN_u0WCHgpvLZJU-12" edge="1">
          <mxGeometry relative="1" as="geometry" />
        </mxCell>
        <mxCell id="ebw9fwN_u0WCHgpvLZJU-1" value="策略表" style="swimlane;fontStyle=1;childLayout=stackLayout;horizontal=1;startSize=30;horizontalStack=0;resizeParent=1;resizeParentMax=0;resizeLast=0;collapsible=1;marginBottom=0;whiteSpace=wrap;html=1;fillColor=#ffe6cc;strokeColor=#d79b00;" parent="1" vertex="1">
          <mxGeometry x="160" y="160" width="140" height="60" as="geometry" />
        </mxCell>
        <mxCell id="ebw9fwN_u0WCHgpvLZJU-2" value="strategy_id" style="text;strokeColor=none;fillColor=none;align=center;verticalAlign=middle;spacingLeft=4;spacingRight=4;overflow=hidden;points=[[0,0.5],[1,0.5]];portConstraint=eastwest;rotatable=0;whiteSpace=wrap;html=1;fontStyle=0" parent="ebw9fwN_u0WCHgpvLZJU-1" vertex="1">
          <mxGeometry y="30" width="140" height="30" as="geometry" />
        </mxCell>
        <mxCell id="ebw9fwN_u0WCHgpvLZJU-17" style="edgeStyle=orthogonalEdgeStyle;rounded=0;orthogonalLoop=1;jettySize=auto;html=1;entryX=1;entryY=0.5;entryDx=0;entryDy=0;" parent="1" source="ebw9fwN_u0WCHgpvLZJU-5" target="ebw9fwN_u0WCHgpvLZJU-8" edge="1">
          <mxGeometry relative="1" as="geometry" />
        </mxCell>
        <mxCell id="ebw9fwN_u0WCHgpvLZJU-18" style="edgeStyle=orthogonalEdgeStyle;rounded=0;orthogonalLoop=1;jettySize=auto;html=1;entryX=1;entryY=0.5;entryDx=0;entryDy=0;shadow=0;dashed=1;dashPattern=8 8;" parent="1" source="ebw9fwN_u0WCHgpvLZJU-5" target="ebw9fwN_u0WCHgpvLZJU-12" edge="1">
          <mxGeometry relative="1" as="geometry" />
        </mxCell>
        <mxCell id="ebw9fwN_u0WCHgpvLZJU-5" value="奖品表" style="swimlane;fontStyle=1;childLayout=stackLayout;horizontal=1;startSize=30;horizontalStack=0;resizeParent=1;resizeParentMax=0;resizeLast=0;collapsible=1;marginBottom=0;whiteSpace=wrap;html=1;fillColor=#ffe6cc;strokeColor=#d79b00;" parent="1" vertex="1">
          <mxGeometry x="620" y="160" width="140" height="60" as="geometry" />
        </mxCell>
        <mxCell id="ebw9fwN_u0WCHgpvLZJU-6" value="award_id" style="text;strokeColor=none;fillColor=none;align=center;verticalAlign=middle;spacingLeft=4;spacingRight=4;overflow=hidden;points=[[0,0.5],[1,0.5]];portConstraint=eastwest;rotatable=0;whiteSpace=wrap;html=1;fontStyle=0" parent="ebw9fwN_u0WCHgpvLZJU-5" vertex="1">
          <mxGeometry y="30" width="140" height="30" as="geometry" />
        </mxCell>
        <mxCell id="ebw9fwN_u0WCHgpvLZJU-7" value="策略明细表" style="swimlane;fontStyle=0;childLayout=stackLayout;horizontal=1;startSize=30;horizontalStack=0;resizeParent=1;resizeParentMax=0;resizeLast=0;collapsible=1;marginBottom=0;whiteSpace=wrap;html=1;fillColor=#d5e8d4;strokeColor=#82b366;" parent="1" vertex="1">
          <mxGeometry x="390" y="70" width="140" height="90" as="geometry" />
        </mxCell>
        <mxCell id="ebw9fwN_u0WCHgpvLZJU-8" value="strategy_id" style="text;strokeColor=none;fillColor=none;align=center;verticalAlign=middle;spacingLeft=4;spacingRight=4;overflow=hidden;points=[[0,0.5],[1,0.5]];portConstraint=eastwest;rotatable=0;whiteSpace=wrap;html=1;" parent="ebw9fwN_u0WCHgpvLZJU-7" vertex="1">
          <mxGeometry y="30" width="140" height="30" as="geometry" />
        </mxCell>
        <mxCell id="ebw9fwN_u0WCHgpvLZJU-10" value="award_id" style="text;strokeColor=none;fillColor=none;align=center;verticalAlign=middle;spacingLeft=4;spacingRight=4;overflow=hidden;points=[[0,0.5],[1,0.5]];portConstraint=eastwest;rotatable=0;whiteSpace=wrap;html=1;" parent="ebw9fwN_u0WCHgpvLZJU-7" vertex="1">
          <mxGeometry y="60" width="140" height="30" as="geometry" />
        </mxCell>
        <mxCell id="ebw9fwN_u0WCHgpvLZJU-11" value="策略规则表" style="swimlane;fontStyle=0;childLayout=stackLayout;horizontal=1;startSize=30;horizontalStack=0;resizeParent=1;resizeParentMax=0;resizeLast=0;collapsible=1;marginBottom=0;whiteSpace=wrap;html=1;fillColor=#d5e8d4;strokeColor=#82b366;" parent="1" vertex="1">
          <mxGeometry x="390" y="220" width="140" height="90" as="geometry" />
        </mxCell>
        <mxCell id="ebw9fwN_u0WCHgpvLZJU-12" value="strategy_id" style="text;strokeColor=none;fillColor=none;align=center;verticalAlign=middle;spacingLeft=4;spacingRight=4;overflow=hidden;points=[[0,0.5],[1,0.5]];portConstraint=eastwest;rotatable=0;whiteSpace=wrap;html=1;" parent="ebw9fwN_u0WCHgpvLZJU-11" vertex="1">
          <mxGeometry y="30" width="140" height="30" as="geometry" />
        </mxCell>
        <mxCell id="ebw9fwN_u0WCHgpvLZJU-13" value="award_id" style="text;strokeColor=none;fillColor=none;align=center;verticalAlign=middle;spacingLeft=4;spacingRight=4;overflow=hidden;points=[[0,0.5],[1,0.5]];portConstraint=eastwest;rotatable=0;whiteSpace=wrap;html=1;" parent="ebw9fwN_u0WCHgpvLZJU-11" vertex="1">
          <mxGeometry y="60" width="140" height="30" as="geometry" />
        </mxCell>
      </root>
    </mxGraphModel>
  </diagram>
  <diagram id="Z1cisTiV-lF0b2eL5G-h" name="策略概率装配">
    <mxGraphModel dx="1190" dy="512" grid="0" gridSize="10" guides="1" tooltips="1" connect="1" arrows="1" fold="1" page="1" pageScale="1" pageWidth="1600" pageHeight="900" math="0" shadow="0">
      <root>
        <mxCell id="0" />
        <mxCell id="1" parent="0" />
        <mxCell id="FmFNmpZyJhcfT3z4IB3d-53" style="edgeStyle=orthogonalEdgeStyle;rounded=0;orthogonalLoop=1;jettySize=auto;html=1;entryX=0.988;entryY=0.831;entryDx=0;entryDy=0;entryPerimeter=0;" edge="1" parent="1" source="FmFNmpZyJhcfT3z4IB3d-51" target="FmFNmpZyJhcfT3z4IB3d-1">
          <mxGeometry relative="1" as="geometry">
            <Array as="points">
              <mxPoint x="680" y="520" />
              <mxPoint x="680" y="216" />
            </Array>
          </mxGeometry>
        </mxCell>
        <mxCell id="FmFNmpZyJhcfT3z4IB3d-51" value="" style="rounded=1;whiteSpace=wrap;html=1;dashed=1;" vertex="1" parent="1">
          <mxGeometry x="300" y="470" width="240" height="100" as="geometry" />
        </mxCell>
        <mxCell id="FmFNmpZyJhcfT3z4IB3d-1" value="" style="image;sketch=0;aspect=fixed;html=1;points=[];align=center;fontSize=12;image=img/lib/mscae/Cache_Redis_Product.svg;" vertex="1" parent="1">
          <mxGeometry x="600" y="160" width="80" height="67.19" as="geometry" />
        </mxCell>
        <mxCell id="FmFNmpZyJhcfT3z4IB3d-15" style="edgeStyle=orthogonalEdgeStyle;rounded=0;orthogonalLoop=1;jettySize=auto;html=1;" edge="1" parent="1" source="FmFNmpZyJhcfT3z4IB3d-2" target="FmFNmpZyJhcfT3z4IB3d-13">
          <mxGeometry relative="1" as="geometry" />
        </mxCell>
        <mxCell id="FmFNmpZyJhcfT3z4IB3d-2" value="" style="image;sketch=0;aspect=fixed;html=1;points=[];align=center;fontSize=12;image=img/lib/mscae/Azure_Database_for_MySQL_servers.svg;" vertex="1" parent="1">
          <mxGeometry x="600" y="320" width="80" height="105.26" as="geometry" />
        </mxCell>
        <mxCell id="FmFNmpZyJhcfT3z4IB3d-3" value="&lt;b&gt;策略概率装配&lt;/b&gt;" style="rounded=1;whiteSpace=wrap;html=1;" vertex="1" parent="1">
          <mxGeometry x="300" y="180" width="100" height="40" as="geometry" />
        </mxCell>
        <mxCell id="FmFNmpZyJhcfT3z4IB3d-6" value="&lt;font color=&quot;#66b2ff&quot;&gt;&lt;b&gt;①&lt;/b&gt;&lt;/font&gt;" style="text;html=1;strokeColor=none;fillColor=none;align=center;verticalAlign=middle;whiteSpace=wrap;rounded=0;" vertex="1" parent="1">
          <mxGeometry x="470" y="170" width="50" height="20" as="geometry" />
        </mxCell>
        <mxCell id="FmFNmpZyJhcfT3z4IB3d-8" value="&lt;font color=&quot;#66b2ff&quot;&gt;&lt;b&gt;存在&lt;/b&gt;&lt;/font&gt;" style="text;html=1;strokeColor=none;fillColor=none;align=center;verticalAlign=middle;whiteSpace=wrap;rounded=0;" vertex="1" parent="1">
          <mxGeometry x="520" y="210" width="60" height="30" as="geometry" />
        </mxCell>
        <mxCell id="FmFNmpZyJhcfT3z4IB3d-10" value="&lt;font color=&quot;#66b2ff&quot;&gt;&lt;b&gt;不存在&lt;/b&gt;&lt;/font&gt;" style="text;html=1;strokeColor=none;fillColor=none;align=center;verticalAlign=middle;whiteSpace=wrap;rounded=0;" vertex="1" parent="1">
          <mxGeometry x="590" y="240" width="60" height="30" as="geometry" />
        </mxCell>
        <mxCell id="FmFNmpZyJhcfT3z4IB3d-11" value="" style="endArrow=classic;html=1;rounded=0;" edge="1" parent="1" target="FmFNmpZyJhcfT3z4IB3d-2">
          <mxGeometry width="50" height="50" relative="1" as="geometry">
            <mxPoint x="640" y="230" as="sourcePoint" />
            <mxPoint x="690" y="180" as="targetPoint" />
          </mxGeometry>
        </mxCell>
        <mxCell id="FmFNmpZyJhcfT3z4IB3d-12" value="&lt;font color=&quot;#66b2ff&quot;&gt;&lt;b&gt;②&lt;/b&gt;&lt;/font&gt;" style="text;html=1;strokeColor=none;fillColor=none;align=center;verticalAlign=middle;whiteSpace=wrap;rounded=0;" vertex="1" parent="1">
          <mxGeometry x="600" y="270" width="50" height="20" as="geometry" />
        </mxCell>
        <mxCell id="FmFNmpZyJhcfT3z4IB3d-24" style="edgeStyle=orthogonalEdgeStyle;rounded=0;orthogonalLoop=1;jettySize=auto;html=1;" edge="1" parent="1" source="FmFNmpZyJhcfT3z4IB3d-13">
          <mxGeometry relative="1" as="geometry">
            <mxPoint x="420" y="460" as="targetPoint" />
          </mxGeometry>
        </mxCell>
        <mxCell id="FmFNmpZyJhcfT3z4IB3d-13" value="&lt;font style=&quot;font-size: 10px;&quot;&gt;&lt;b&gt;策略-奖品明细&lt;/b&gt;&lt;/font&gt;" style="shape=parallelogram;perimeter=parallelogramPerimeter;whiteSpace=wrap;html=1;fixedSize=1;" vertex="1" parent="1">
          <mxGeometry x="370" y="352.63" width="100" height="40" as="geometry" />
        </mxCell>
        <mxCell id="FmFNmpZyJhcfT3z4IB3d-20" value="" style="endArrow=classic;html=1;rounded=0;entryX=-0.011;entryY=0.58;entryDx=0;entryDy=0;entryPerimeter=0;" edge="1" parent="1" target="FmFNmpZyJhcfT3z4IB3d-1">
          <mxGeometry width="50" height="50" relative="1" as="geometry">
            <mxPoint x="400" y="200" as="sourcePoint" />
            <mxPoint x="450" y="150" as="targetPoint" />
          </mxGeometry>
        </mxCell>
        <mxCell id="FmFNmpZyJhcfT3z4IB3d-22" value="" style="endArrow=classic;html=1;rounded=0;entryX=0.588;entryY=-0.002;entryDx=0;entryDy=0;entryPerimeter=0;" edge="1" parent="1" target="FmFNmpZyJhcfT3z4IB3d-13">
          <mxGeometry width="50" height="50" relative="1" as="geometry">
            <mxPoint x="600" y="210" as="sourcePoint" />
            <mxPoint x="650" y="160" as="targetPoint" />
          </mxGeometry>
        </mxCell>
        <mxCell id="FmFNmpZyJhcfT3z4IB3d-23" value="&lt;font color=&quot;#66b2ff&quot;&gt;&lt;b&gt;②&lt;/b&gt;&lt;/font&gt;" style="text;html=1;strokeColor=none;fillColor=none;align=center;verticalAlign=middle;whiteSpace=wrap;rounded=0;" vertex="1" parent="1">
          <mxGeometry x="500" y="235" width="50" height="20" as="geometry" />
        </mxCell>
        <mxCell id="FmFNmpZyJhcfT3z4IB3d-25" value="&lt;b&gt;概率&lt;/b&gt;" style="rounded=1;whiteSpace=wrap;html=1;fillColor=#d80073;fontColor=#ffffff;strokeColor=#A50040;" vertex="1" parent="1">
          <mxGeometry x="310" y="480" width="40" height="20" as="geometry" />
        </mxCell>
        <mxCell id="FmFNmpZyJhcfT3z4IB3d-26" value="&lt;b&gt;A 1%&lt;/b&gt;" style="rounded=1;whiteSpace=wrap;html=1;fillColor=#dae8fc;strokeColor=#6c8ebf;" vertex="1" parent="1">
          <mxGeometry x="370" y="480" width="40" height="20" as="geometry" />
        </mxCell>
        <mxCell id="FmFNmpZyJhcfT3z4IB3d-27" value="&lt;b&gt;B 4%&lt;/b&gt;" style="rounded=1;whiteSpace=wrap;html=1;fillColor=#d5e8d4;strokeColor=#82b366;" vertex="1" parent="1">
          <mxGeometry x="430" y="480" width="40" height="20" as="geometry" />
        </mxCell>
        <mxCell id="FmFNmpZyJhcfT3z4IB3d-28" value="&lt;b&gt;C 5%&lt;/b&gt;" style="rounded=1;whiteSpace=wrap;html=1;fillColor=#ffe6cc;strokeColor=#d79b00;" vertex="1" parent="1">
          <mxGeometry x="490" y="480" width="40" height="20" as="geometry" />
        </mxCell>
        <mxCell id="FmFNmpZyJhcfT3z4IB3d-29" value="" style="shape=table;startSize=0;container=1;collapsible=0;childLayout=tableLayout;fontSize=16;" vertex="1" parent="1">
          <mxGeometry x="310" y="540" width="220" height="20" as="geometry" />
        </mxCell>
        <mxCell id="FmFNmpZyJhcfT3z4IB3d-30" value="" style="shape=tableRow;horizontal=0;startSize=0;swimlaneHead=0;swimlaneBody=0;strokeColor=inherit;top=0;left=0;bottom=0;right=0;collapsible=0;dropTarget=0;fillColor=none;points=[[0,0.5],[1,0.5]];portConstraint=eastwest;fontSize=16;" vertex="1" parent="FmFNmpZyJhcfT3z4IB3d-29">
          <mxGeometry width="220" height="20" as="geometry" />
        </mxCell>
        <mxCell id="FmFNmpZyJhcfT3z4IB3d-31" value="C" style="shape=partialRectangle;html=1;whiteSpace=wrap;connectable=0;strokeColor=#d79b00;overflow=hidden;fillColor=#ffe6cc;top=0;left=0;bottom=0;right=0;pointerEvents=1;fontSize=16;" vertex="1" parent="FmFNmpZyJhcfT3z4IB3d-30">
          <mxGeometry width="22" height="20" as="geometry">
            <mxRectangle width="22" height="20" as="alternateBounds" />
          </mxGeometry>
        </mxCell>
        <mxCell id="FmFNmpZyJhcfT3z4IB3d-32" value="B" style="shape=partialRectangle;html=1;whiteSpace=wrap;connectable=0;strokeColor=#82b366;overflow=hidden;fillColor=#d5e8d4;top=0;left=0;bottom=0;right=0;pointerEvents=1;fontSize=16;" vertex="1" parent="FmFNmpZyJhcfT3z4IB3d-30">
          <mxGeometry x="22" width="22" height="20" as="geometry">
            <mxRectangle width="22" height="20" as="alternateBounds" />
          </mxGeometry>
        </mxCell>
        <mxCell id="FmFNmpZyJhcfT3z4IB3d-33" value="C" style="shape=partialRectangle;html=1;whiteSpace=wrap;connectable=0;strokeColor=#d79b00;overflow=hidden;fillColor=#ffe6cc;top=0;left=0;bottom=0;right=0;pointerEvents=1;fontSize=16;" vertex="1" parent="FmFNmpZyJhcfT3z4IB3d-30">
          <mxGeometry x="44" width="22" height="20" as="geometry">
            <mxRectangle width="22" height="20" as="alternateBounds" />
          </mxGeometry>
        </mxCell>
        <mxCell id="FmFNmpZyJhcfT3z4IB3d-42" value="B" style="shape=partialRectangle;html=1;whiteSpace=wrap;connectable=0;strokeColor=#82b366;overflow=hidden;fillColor=#d5e8d4;top=0;left=0;bottom=0;right=0;pointerEvents=1;fontSize=16;" vertex="1" parent="FmFNmpZyJhcfT3z4IB3d-30">
          <mxGeometry x="66" width="22" height="20" as="geometry">
            <mxRectangle width="22" height="20" as="alternateBounds" />
          </mxGeometry>
        </mxCell>
        <mxCell id="FmFNmpZyJhcfT3z4IB3d-43" value="A" style="shape=partialRectangle;html=1;whiteSpace=wrap;connectable=0;strokeColor=#6c8ebf;overflow=hidden;fillColor=#dae8fc;top=0;left=0;bottom=0;right=0;pointerEvents=1;fontSize=16;" vertex="1" parent="FmFNmpZyJhcfT3z4IB3d-30">
          <mxGeometry x="88" width="22" height="20" as="geometry">
            <mxRectangle width="22" height="20" as="alternateBounds" />
          </mxGeometry>
        </mxCell>
        <mxCell id="FmFNmpZyJhcfT3z4IB3d-44" value="C" style="shape=partialRectangle;html=1;whiteSpace=wrap;connectable=0;strokeColor=#d79b00;overflow=hidden;fillColor=#ffe6cc;top=0;left=0;bottom=0;right=0;pointerEvents=1;fontSize=16;" vertex="1" parent="FmFNmpZyJhcfT3z4IB3d-30">
          <mxGeometry x="110" width="22" height="20" as="geometry">
            <mxRectangle width="22" height="20" as="alternateBounds" />
          </mxGeometry>
        </mxCell>
        <mxCell id="FmFNmpZyJhcfT3z4IB3d-45" value="B" style="shape=partialRectangle;html=1;whiteSpace=wrap;connectable=0;strokeColor=#82b366;overflow=hidden;fillColor=#d5e8d4;top=0;left=0;bottom=0;right=0;pointerEvents=1;fontSize=16;" vertex="1" parent="FmFNmpZyJhcfT3z4IB3d-30">
          <mxGeometry x="132" width="22" height="20" as="geometry">
            <mxRectangle width="22" height="20" as="alternateBounds" />
          </mxGeometry>
        </mxCell>
        <mxCell id="FmFNmpZyJhcfT3z4IB3d-46" value="C" style="shape=partialRectangle;html=1;whiteSpace=wrap;connectable=0;strokeColor=#d79b00;overflow=hidden;fillColor=#ffe6cc;top=0;left=0;bottom=0;right=0;pointerEvents=1;fontSize=16;" vertex="1" parent="FmFNmpZyJhcfT3z4IB3d-30">
          <mxGeometry x="154" width="22" height="20" as="geometry">
            <mxRectangle width="22" height="20" as="alternateBounds" />
          </mxGeometry>
        </mxCell>
        <mxCell id="FmFNmpZyJhcfT3z4IB3d-47" value="C" style="shape=partialRectangle;html=1;whiteSpace=wrap;connectable=0;strokeColor=#d79b00;overflow=hidden;fillColor=#ffe6cc;top=0;left=0;bottom=0;right=0;pointerEvents=1;fontSize=16;" vertex="1" parent="FmFNmpZyJhcfT3z4IB3d-30">
          <mxGeometry x="176" width="22" height="20" as="geometry">
            <mxRectangle width="22" height="20" as="alternateBounds" />
          </mxGeometry>
        </mxCell>
        <mxCell id="FmFNmpZyJhcfT3z4IB3d-48" value="B" style="shape=partialRectangle;html=1;whiteSpace=wrap;connectable=0;strokeColor=#82b366;overflow=hidden;fillColor=#d5e8d4;top=0;left=0;bottom=0;right=0;pointerEvents=1;fontSize=16;" vertex="1" parent="FmFNmpZyJhcfT3z4IB3d-30">
          <mxGeometry x="198" width="22" height="20" as="geometry">
            <mxRectangle width="22" height="20" as="alternateBounds" />
          </mxGeometry>
        </mxCell>
        <mxCell id="FmFNmpZyJhcfT3z4IB3d-50" value="&lt;b&gt;HashMap&lt;/b&gt;" style="text;html=1;strokeColor=none;fillColor=none;align=center;verticalAlign=middle;whiteSpace=wrap;rounded=0;" vertex="1" parent="1">
          <mxGeometry x="310" y="510" width="60" height="30" as="geometry" />
        </mxCell>
        <mxCell id="FmFNmpZyJhcfT3z4IB3d-52" value="&lt;font color=&quot;#66b2ff&quot;&gt;&lt;b&gt;③&lt;/b&gt;&lt;/font&gt;" style="text;html=1;strokeColor=none;fillColor=none;align=center;verticalAlign=middle;whiteSpace=wrap;rounded=0;" vertex="1" parent="1">
          <mxGeometry x="370" y="420" width="50" height="20" as="geometry" />
        </mxCell>
        <mxCell id="FmFNmpZyJhcfT3z4IB3d-54" value="&lt;font color=&quot;#66b2ff&quot;&gt;&lt;b&gt;④&lt;/b&gt;&lt;/font&gt;" style="text;html=1;strokeColor=none;fillColor=none;align=center;verticalAlign=middle;whiteSpace=wrap;rounded=0;" vertex="1" parent="1">
          <mxGeometry x="550" y="490" width="50" height="20" as="geometry" />
        </mxCell>
        <mxCell id="FmFNmpZyJhcfT3z4IB3d-55" value="Redis存储的数据" style="swimlane;whiteSpace=wrap;html=1;fillColor=#a20025;strokeColor=#6F0000;fontColor=#ffffff;" vertex="1" parent="1">
          <mxGeometry x="565" y="70" width="150" height="80" as="geometry">
            <mxRectangle x="580" y="60" width="130" height="30" as="alternateBounds" />
          </mxGeometry>
        </mxCell>
        <mxCell id="FmFNmpZyJhcfT3z4IB3d-57" value="&lt;div style=&quot;font-size: 10px;&quot;&gt;&lt;span style=&quot;background-color: initial;&quot;&gt;&lt;font style=&quot;font-size: 10px;&quot;&gt;1.策略-奖品概率明细数组&lt;i&gt;&lt;b&gt;String&lt;/b&gt;&lt;/i&gt;&lt;/font&gt;&lt;/span&gt;&lt;/div&gt;&lt;div style=&quot;font-size: 10px;&quot;&gt;&lt;span style=&quot;background-color: initial;&quot;&gt;&lt;font style=&quot;font-size: 10px;&quot;&gt;2.奖品池长度&lt;i&gt;&lt;b&gt;String&lt;/b&gt;&lt;/i&gt;&lt;br&gt;3.奖品池&lt;b&gt;&lt;i&gt;Map&lt;/i&gt;&lt;/b&gt;&lt;/font&gt;&lt;/span&gt;&lt;/div&gt;" style="text;html=1;align=left;verticalAlign=middle;resizable=0;points=[];autosize=1;strokeColor=none;fillColor=none;" vertex="1" parent="FmFNmpZyJhcfT3z4IB3d-55">
          <mxGeometry y="25" width="160" height="50" as="geometry" />
        </mxCell>
        <mxCell id="FmFNmpZyJhcfT3z4IB3d-58" value="&lt;font color=&quot;#66b2ff&quot;&gt;&lt;b&gt;存放奖品池&lt;/b&gt;&lt;/font&gt;" style="text;html=1;strokeColor=none;fillColor=none;align=center;verticalAlign=middle;whiteSpace=wrap;rounded=0;" vertex="1" parent="1">
          <mxGeometry x="590" y="485" width="70" height="30" as="geometry" />
        </mxCell>
        <mxCell id="FmFNmpZyJhcfT3z4IB3d-62" style="edgeStyle=orthogonalEdgeStyle;rounded=0;orthogonalLoop=1;jettySize=auto;html=1;entryX=1.021;entryY=0.513;entryDx=0;entryDy=0;entryPerimeter=0;" edge="1" parent="1" source="FmFNmpZyJhcfT3z4IB3d-61" target="FmFNmpZyJhcfT3z4IB3d-1">
          <mxGeometry relative="1" as="geometry" />
        </mxCell>
        <mxCell id="FmFNmpZyJhcfT3z4IB3d-61" value="&lt;b&gt;抽奖&lt;/b&gt;" style="rounded=1;whiteSpace=wrap;html=1;" vertex="1" parent="1">
          <mxGeometry x="940" y="173.59" width="80" height="40" as="geometry" />
        </mxCell>
        <mxCell id="FmFNmpZyJhcfT3z4IB3d-72" style="edgeStyle=orthogonalEdgeStyle;rounded=0;orthogonalLoop=1;jettySize=auto;html=1;entryX=0.5;entryY=0;entryDx=0;entryDy=0;" edge="1" parent="1" source="FmFNmpZyJhcfT3z4IB3d-64" target="FmFNmpZyJhcfT3z4IB3d-68">
          <mxGeometry relative="1" as="geometry" />
        </mxCell>
        <mxCell id="FmFNmpZyJhcfT3z4IB3d-64" value="&lt;font style=&quot;font-size: 10px;&quot;&gt;奖品池长度&lt;/font&gt;" style="shape=parallelogram;perimeter=parallelogramPerimeter;whiteSpace=wrap;html=1;fixedSize=1;" vertex="1" parent="1">
          <mxGeometry x="830" y="240" width="90" height="40" as="geometry" />
        </mxCell>
        <mxCell id="FmFNmpZyJhcfT3z4IB3d-65" value="" style="endArrow=classic;html=1;rounded=0;" edge="1" parent="1" target="FmFNmpZyJhcfT3z4IB3d-64">
          <mxGeometry width="50" height="50" relative="1" as="geometry">
            <mxPoint x="680" y="200" as="sourcePoint" />
            <mxPoint x="730" y="150" as="targetPoint" />
          </mxGeometry>
        </mxCell>
        <mxCell id="FmFNmpZyJhcfT3z4IB3d-66" value="&lt;font color=&quot;#66b2ff&quot;&gt;&lt;b&gt;①&lt;/b&gt;&lt;/font&gt;" style="text;html=1;strokeColor=none;fillColor=none;align=center;verticalAlign=middle;whiteSpace=wrap;rounded=0;" vertex="1" parent="1">
          <mxGeometry x="760" y="170" width="50" height="20" as="geometry" />
        </mxCell>
        <mxCell id="FmFNmpZyJhcfT3z4IB3d-75" style="edgeStyle=orthogonalEdgeStyle;rounded=0;orthogonalLoop=1;jettySize=auto;html=1;" edge="1" parent="1" source="FmFNmpZyJhcfT3z4IB3d-68">
          <mxGeometry relative="1" as="geometry">
            <mxPoint x="874.9999999999998" y="460" as="targetPoint" />
          </mxGeometry>
        </mxCell>
        <mxCell id="FmFNmpZyJhcfT3z4IB3d-68" value="&lt;span style=&quot;font-size: 10px;&quot;&gt;奖品池Map&lt;/span&gt;" style="shape=parallelogram;perimeter=parallelogramPerimeter;whiteSpace=wrap;html=1;fixedSize=1;" vertex="1" parent="1">
          <mxGeometry x="830" y="360" width="90" height="40" as="geometry" />
        </mxCell>
        <mxCell id="FmFNmpZyJhcfT3z4IB3d-69" value="&lt;font color=&quot;#66b2ff&quot;&gt;&lt;b&gt;获取长度&lt;/b&gt;&lt;/font&gt;" style="text;html=1;strokeColor=none;fillColor=none;align=center;verticalAlign=middle;whiteSpace=wrap;rounded=0;" vertex="1" parent="1">
          <mxGeometry x="800" y="165" width="70" height="30" as="geometry" />
        </mxCell>
        <mxCell id="FmFNmpZyJhcfT3z4IB3d-70" value="" style="endArrow=classic;html=1;rounded=0;entryX=0;entryY=0.5;entryDx=0;entryDy=0;" edge="1" parent="1" target="FmFNmpZyJhcfT3z4IB3d-68">
          <mxGeometry width="50" height="50" relative="1" as="geometry">
            <mxPoint x="680" y="200" as="sourcePoint" />
            <mxPoint x="730" y="150" as="targetPoint" />
          </mxGeometry>
        </mxCell>
        <mxCell id="FmFNmpZyJhcfT3z4IB3d-73" value="&lt;font color=&quot;#66b2ff&quot;&gt;&lt;b&gt;②&lt;/b&gt;&lt;/font&gt;" style="text;html=1;strokeColor=none;fillColor=none;align=center;verticalAlign=middle;whiteSpace=wrap;rounded=0;" vertex="1" parent="1">
          <mxGeometry x="870" y="290" width="50" height="20" as="geometry" />
        </mxCell>
        <mxCell id="FmFNmpZyJhcfT3z4IB3d-74" value="&lt;font color=&quot;#66b2ff&quot;&gt;&lt;b&gt;随机Key&lt;/b&gt;&lt;/font&gt;" style="text;html=1;strokeColor=none;fillColor=none;align=center;verticalAlign=middle;whiteSpace=wrap;rounded=0;" vertex="1" parent="1">
          <mxGeometry x="880" y="310" width="60" height="30" as="geometry" />
        </mxCell>
        <mxCell id="FmFNmpZyJhcfT3z4IB3d-77" style="edgeStyle=orthogonalEdgeStyle;rounded=0;orthogonalLoop=1;jettySize=auto;html=1;entryX=0.5;entryY=1;entryDx=0;entryDy=0;" edge="1" parent="1" source="FmFNmpZyJhcfT3z4IB3d-76" target="FmFNmpZyJhcfT3z4IB3d-61">
          <mxGeometry relative="1" as="geometry" />
        </mxCell>
        <mxCell id="FmFNmpZyJhcfT3z4IB3d-76" value="&lt;font style=&quot;font-size: 10px;&quot;&gt;奖品ID&lt;/font&gt;" style="shape=process;whiteSpace=wrap;html=1;backgroundOutline=1;" vertex="1" parent="1">
          <mxGeometry x="845" y="460" width="60" height="30" as="geometry" />
        </mxCell>
        <mxCell id="FmFNmpZyJhcfT3z4IB3d-78" value="&lt;font color=&quot;#66b2ff&quot;&gt;&lt;b&gt;③&lt;/b&gt;&lt;/font&gt;" style="text;html=1;strokeColor=none;fillColor=none;align=center;verticalAlign=middle;whiteSpace=wrap;rounded=0;" vertex="1" parent="1">
          <mxGeometry x="870" y="420" width="50" height="20" as="geometry" />
        </mxCell>
        <mxCell id="FmFNmpZyJhcfT3z4IB3d-79" value="&lt;font color=&quot;#66b2ff&quot;&gt;&lt;b&gt;④&lt;/b&gt;&lt;/font&gt;" style="text;html=1;strokeColor=none;fillColor=none;align=center;verticalAlign=middle;whiteSpace=wrap;rounded=0;" vertex="1" parent="1">
          <mxGeometry x="980" y="350" width="50" height="20" as="geometry" />
        </mxCell>
      </root>
    </mxGraphModel>
  </diagram>
</mxfile>
